<mxfile host="app.diagrams.net" modified="2024-04-24T07:16:06.416Z" agent="Mozilla/5.0 (Macintosh; Intel Mac OS X 10_15_7) AppleWebKit/537.36 (KHTML, like Gecko) Chrome/124.0.0.0 Safari/537.36" etag="BGkBWTmsDfX4XY1M28do" version="24.2.1" type="device">
  <diagram id="kgpKYQtTHZ0yAKxKKP6v" name="Page-1">
    <mxGraphModel dx="1796" dy="1094" grid="1" gridSize="10" guides="1" tooltips="1" connect="1" arrows="1" fold="1" page="1" pageScale="1" pageWidth="850" pageHeight="1100" math="0" shadow="0">
      <root>
        <mxCell id="0" />
        <mxCell id="1" parent="0" />
        <mxCell id="3nuBFxr9cyL0pnOWT2aG-1" value="Broadcasting" style="shape=table;childLayout=tableLayout;startSize=40;collapsible=0;recursiveResize=0;expand=0;fillColor=#1ba1e2;fontStyle=1;strokeColor=#006EAF;fontColor=#ffffff;" parent="1" vertex="1">
          <mxGeometry x="20" y="20" width="750" height="640" as="geometry" />
        </mxCell>
        <mxCell id="3nuBFxr9cyL0pnOWT2aG-2" value="" style="edgeStyle=orthogonalEdgeStyle;rounded=0;orthogonalLoop=1;jettySize=auto;html=1;" parent="3nuBFxr9cyL0pnOWT2aG-1" source="3nuBFxr9cyL0pnOWT2aG-7" target="3nuBFxr9cyL0pnOWT2aG-17" edge="1">
          <mxGeometry relative="1" as="geometry" />
        </mxCell>
        <mxCell id="3nuBFxr9cyL0pnOWT2aG-3" value="Camous" style="shape=tableRow;horizontal=0;swimlaneHead=0;swimlaneBody=0;top=0;left=0;bottom=0;right=0;fillColor=#1ba1e2;points=[[0,0.5],[1,0.5]];portConstraint=eastwest;startSize=40;collapsible=0;recursiveResize=0;expand=0;fontStyle=1;strokeColor=#006EAF;fontColor=#ffffff;" parent="3nuBFxr9cyL0pnOWT2aG-1" vertex="1">
          <mxGeometry y="40" width="750" height="190" as="geometry" />
        </mxCell>
        <mxCell id="3nuBFxr9cyL0pnOWT2aG-4" value="Admin" style="swimlane;swimlaneHead=0;swimlaneBody=0;connectable=0;fillColor=#1ba1e2;startSize=40;collapsible=0;recursiveResize=0;expand=0;fontStyle=1;strokeColor=#006EAF;fontColor=#ffffff;" parent="3nuBFxr9cyL0pnOWT2aG-3" vertex="1">
          <mxGeometry x="40" width="240" height="190" as="geometry">
            <mxRectangle width="240" height="190" as="alternateBounds" />
          </mxGeometry>
        </mxCell>
        <mxCell id="3nuBFxr9cyL0pnOWT2aG-5" style="edgeStyle=orthogonalEdgeStyle;rounded=0;orthogonalLoop=1;jettySize=auto;html=1;fillColor=#1ba1e2;strokeColor=#006EAF;" parent="3nuBFxr9cyL0pnOWT2aG-4" source="3nuBFxr9cyL0pnOWT2aG-6" target="3nuBFxr9cyL0pnOWT2aG-7" edge="1">
          <mxGeometry relative="1" as="geometry" />
        </mxCell>
        <mxCell id="3nuBFxr9cyL0pnOWT2aG-6" value="Start" style="rounded=1;whiteSpace=wrap;html=1;arcSize=50;fillColor=#1ba1e2;strokeColor=#006EAF;fontColor=#ffffff;" parent="3nuBFxr9cyL0pnOWT2aG-4" vertex="1">
          <mxGeometry x="60" y="60" width="90" height="40" as="geometry" />
        </mxCell>
        <mxCell id="3nuBFxr9cyL0pnOWT2aG-7" value="Upload AV sources" style="rounded=0;whiteSpace=wrap;html=1;fillColor=#1ba1e2;strokeColor=#006EAF;fontColor=#ffffff;" parent="3nuBFxr9cyL0pnOWT2aG-4" vertex="1">
          <mxGeometry x="60" y="120" width="90" height="40" as="geometry" />
        </mxCell>
        <mxCell id="3nuBFxr9cyL0pnOWT2aG-8" value="Teacher" style="swimlane;swimlaneHead=0;swimlaneBody=0;connectable=0;fillColor=#1ba1e2;startSize=40;collapsible=0;recursiveResize=0;expand=0;fontStyle=1;strokeColor=#006EAF;fontColor=#ffffff;" parent="3nuBFxr9cyL0pnOWT2aG-3" vertex="1">
          <mxGeometry x="280" width="220" height="190" as="geometry">
            <mxRectangle width="220" height="190" as="alternateBounds" />
          </mxGeometry>
        </mxCell>
        <mxCell id="3nuBFxr9cyL0pnOWT2aG-11" value="Students" style="swimlane;swimlaneHead=0;swimlaneBody=0;connectable=0;fillColor=#1ba1e2;startSize=40;collapsible=0;recursiveResize=0;expand=0;fontStyle=1;strokeColor=#006EAF;fontColor=#ffffff;" parent="3nuBFxr9cyL0pnOWT2aG-3" vertex="1">
          <mxGeometry x="500" width="250" height="190" as="geometry">
            <mxRectangle width="250" height="190" as="alternateBounds" />
          </mxGeometry>
        </mxCell>
        <mxCell id="ZWNse2k3U8-y_IZt1sS2-1" value="Classroom&#xa;(With NMP/NDP100)" style="shape=tableRow;horizontal=0;swimlaneHead=0;swimlaneBody=0;top=0;left=0;bottom=0;right=0;fillColor=#1ba1e2;points=[[0,0.5],[1,0.5]];portConstraint=eastwest;startSize=40;collapsible=0;recursiveResize=0;expand=0;fontStyle=1;strokeColor=#006EAF;fontColor=#ffffff;" vertex="1" parent="3nuBFxr9cyL0pnOWT2aG-1">
          <mxGeometry y="230" width="750" height="210" as="geometry" />
        </mxCell>
        <mxCell id="ZWNse2k3U8-y_IZt1sS2-2" value="" style="swimlane;swimlaneHead=0;swimlaneBody=0;connectable=0;fillColor=#1ba1e2;startSize=0;collapsible=0;recursiveResize=0;expand=0;fontStyle=1;strokeColor=#006EAF;fontColor=#ffffff;" vertex="1" parent="ZWNse2k3U8-y_IZt1sS2-1">
          <mxGeometry x="40" width="240" height="210" as="geometry">
            <mxRectangle width="240" height="210" as="alternateBounds" />
          </mxGeometry>
        </mxCell>
        <mxCell id="ZWNse2k3U8-y_IZt1sS2-4" value="" style="swimlane;swimlaneHead=0;swimlaneBody=0;connectable=0;fillColor=#1ba1e2;startSize=0;collapsible=0;recursiveResize=0;expand=0;fontStyle=1;strokeColor=#006EAF;fontColor=#ffffff;" vertex="1" parent="ZWNse2k3U8-y_IZt1sS2-1">
          <mxGeometry x="280" width="220" height="210" as="geometry">
            <mxRectangle width="220" height="210" as="alternateBounds" />
          </mxGeometry>
        </mxCell>
        <mxCell id="ZWNse2k3U8-y_IZt1sS2-9" value="" style="swimlane;swimlaneHead=0;swimlaneBody=0;connectable=0;fillColor=#1ba1e2;startSize=0;collapsible=0;recursiveResize=0;expand=0;fontStyle=1;strokeColor=#006EAF;fontColor=#ffffff;" vertex="1" parent="ZWNse2k3U8-y_IZt1sS2-1">
          <mxGeometry x="500" width="250" height="210" as="geometry">
            <mxRectangle width="250" height="210" as="alternateBounds" />
          </mxGeometry>
        </mxCell>
        <mxCell id="ZWNse2k3U8-y_IZt1sS2-82" style="edgeStyle=orthogonalEdgeStyle;rounded=0;orthogonalLoop=1;jettySize=auto;html=1;exitX=0.5;exitY=0;exitDx=0;exitDy=0;entryX=0.5;entryY=1;entryDx=0;entryDy=0;fillColor=#1ba1e2;strokeColor=#006EAF;" edge="1" parent="ZWNse2k3U8-y_IZt1sS2-9" source="ZWNse2k3U8-y_IZt1sS2-78" target="ZWNse2k3U8-y_IZt1sS2-81">
          <mxGeometry relative="1" as="geometry" />
        </mxCell>
        <mxCell id="ZWNse2k3U8-y_IZt1sS2-78" value="Watching" style="rounded=0;whiteSpace=wrap;html=1;fillColor=#1ba1e2;strokeColor=#006EAF;fontColor=#ffffff;" vertex="1" parent="ZWNse2k3U8-y_IZt1sS2-9">
          <mxGeometry x="70" y="130" width="90" height="40" as="geometry" />
        </mxCell>
        <mxCell id="ZWNse2k3U8-y_IZt1sS2-81" value="End" style="rounded=1;whiteSpace=wrap;html=1;arcSize=50;fillColor=#1ba1e2;strokeColor=#006EAF;fontColor=#ffffff;" vertex="1" parent="ZWNse2k3U8-y_IZt1sS2-9">
          <mxGeometry x="70" y="40" width="90" height="40" as="geometry" />
        </mxCell>
        <mxCell id="ZWNse2k3U8-y_IZt1sS2-70" value="Anyware" style="shape=tableRow;horizontal=0;swimlaneHead=0;swimlaneBody=0;top=0;left=0;bottom=0;right=0;fillColor=#1ba1e2;points=[[0,0.5],[1,0.5]];portConstraint=eastwest;startSize=40;collapsible=0;recursiveResize=0;expand=0;fontStyle=1;strokeColor=#006EAF;fontColor=#ffffff;" vertex="1" parent="3nuBFxr9cyL0pnOWT2aG-1">
          <mxGeometry y="440" width="750" height="200" as="geometry" />
        </mxCell>
        <mxCell id="ZWNse2k3U8-y_IZt1sS2-71" style="swimlane;swimlaneHead=0;swimlaneBody=0;connectable=0;fillColor=#1ba1e2;startSize=0;collapsible=0;recursiveResize=0;expand=0;fontStyle=1;strokeColor=#006EAF;fontColor=#ffffff;" vertex="1" parent="ZWNse2k3U8-y_IZt1sS2-70">
          <mxGeometry x="40" width="240" height="200" as="geometry">
            <mxRectangle width="240" height="200" as="alternateBounds" />
          </mxGeometry>
        </mxCell>
        <mxCell id="ZWNse2k3U8-y_IZt1sS2-72" style="swimlane;swimlaneHead=0;swimlaneBody=0;connectable=0;fillColor=#1ba1e2;startSize=0;collapsible=0;recursiveResize=0;expand=0;fontStyle=1;strokeColor=#006EAF;fontColor=#ffffff;" vertex="1" parent="ZWNse2k3U8-y_IZt1sS2-70">
          <mxGeometry x="280" width="220" height="200" as="geometry">
            <mxRectangle width="220" height="200" as="alternateBounds" />
          </mxGeometry>
        </mxCell>
        <mxCell id="ZWNse2k3U8-y_IZt1sS2-75" value="start broadcasting" style="rounded=0;whiteSpace=wrap;html=1;fillColor=#1ba1e2;strokeColor=#006EAF;fontColor=#ffffff;" vertex="1" parent="ZWNse2k3U8-y_IZt1sS2-72">
          <mxGeometry x="70" y="90" width="90" height="40" as="geometry" />
        </mxCell>
        <mxCell id="ZWNse2k3U8-y_IZt1sS2-73" style="swimlane;swimlaneHead=0;swimlaneBody=0;connectable=0;fillColor=#1ba1e2;startSize=0;collapsible=0;recursiveResize=0;expand=0;fontStyle=1;strokeColor=#006EAF;fontColor=#ffffff;" vertex="1" parent="ZWNse2k3U8-y_IZt1sS2-70">
          <mxGeometry x="500" width="250" height="200" as="geometry">
            <mxRectangle width="250" height="200" as="alternateBounds" />
          </mxGeometry>
        </mxCell>
        <mxCell id="ZWNse2k3U8-y_IZt1sS2-79" style="edgeStyle=orthogonalEdgeStyle;rounded=0;orthogonalLoop=1;jettySize=auto;html=1;exitX=0.5;exitY=1;exitDx=0;exitDy=0;entryX=0;entryY=0.5;entryDx=0;entryDy=0;fillColor=#1ba1e2;strokeColor=#006EAF;" edge="1" parent="3nuBFxr9cyL0pnOWT2aG-1" source="3nuBFxr9cyL0pnOWT2aG-7" target="ZWNse2k3U8-y_IZt1sS2-75">
          <mxGeometry relative="1" as="geometry" />
        </mxCell>
        <mxCell id="ZWNse2k3U8-y_IZt1sS2-80" style="edgeStyle=orthogonalEdgeStyle;rounded=0;orthogonalLoop=1;jettySize=auto;html=1;exitX=1;exitY=0.5;exitDx=0;exitDy=0;entryX=0.5;entryY=1;entryDx=0;entryDy=0;fillColor=#1ba1e2;strokeColor=#006EAF;" edge="1" parent="3nuBFxr9cyL0pnOWT2aG-1" source="ZWNse2k3U8-y_IZt1sS2-75" target="ZWNse2k3U8-y_IZt1sS2-78">
          <mxGeometry relative="1" as="geometry" />
        </mxCell>
      </root>
    </mxGraphModel>
  </diagram>
</mxfile>
